<mxfile host="app.diagrams.net" modified="2024-02-06T09:09:13.031Z" agent="Mozilla/5.0 (Windows NT 10.0; Win64; x64) AppleWebKit/537.36 (KHTML, like Gecko) Chrome/122.0.0.0 Safari/537.36 Edg/122.0.0.0" etag="M6wNqXgCmrIQy9k8f9oZ" version="23.1.1" type="github">
  <diagram id="C5RBs43oDa-KdzZeNtuy" name="Page-1">
    <mxGraphModel dx="3104" dy="2405" grid="1" gridSize="10" guides="1" tooltips="1" connect="1" arrows="1" fold="1" page="1" pageScale="1" pageWidth="827" pageHeight="1169" math="0" shadow="0">
      <root>
        <mxCell id="WIyWlLk6GJQsqaUBKTNV-0" />
        <mxCell id="WIyWlLk6GJQsqaUBKTNV-1" parent="WIyWlLk6GJQsqaUBKTNV-0" />
        <mxCell id="WIyWlLk6GJQsqaUBKTNV-3" value="开始" style="rounded=1;whiteSpace=wrap;html=1;fontSize=12;glass=0;strokeWidth=1;shadow=0;" parent="WIyWlLk6GJQsqaUBKTNV-1" vertex="1">
          <mxGeometry x="190" y="-650" width="120" height="40" as="geometry" />
        </mxCell>
        <mxCell id="N5REiEFwKjcpJwuuKDTN-44" value="" style="edgeStyle=orthogonalEdgeStyle;rounded=0;orthogonalLoop=1;jettySize=auto;html=1;" edge="1" parent="WIyWlLk6GJQsqaUBKTNV-1" source="N5REiEFwKjcpJwuuKDTN-9" target="N5REiEFwKjcpJwuuKDTN-40">
          <mxGeometry relative="1" as="geometry" />
        </mxCell>
        <mxCell id="N5REiEFwKjcpJwuuKDTN-45" value="是" style="edgeLabel;html=1;align=center;verticalAlign=middle;resizable=0;points=[];" vertex="1" connectable="0" parent="N5REiEFwKjcpJwuuKDTN-44">
          <mxGeometry x="-0.2598" relative="1" as="geometry">
            <mxPoint as="offset" />
          </mxGeometry>
        </mxCell>
        <mxCell id="N5REiEFwKjcpJwuuKDTN-64" value="" style="edgeStyle=orthogonalEdgeStyle;rounded=0;orthogonalLoop=1;jettySize=auto;html=1;" edge="1" parent="WIyWlLk6GJQsqaUBKTNV-1" source="N5REiEFwKjcpJwuuKDTN-9" target="N5REiEFwKjcpJwuuKDTN-63">
          <mxGeometry relative="1" as="geometry" />
        </mxCell>
        <mxCell id="N5REiEFwKjcpJwuuKDTN-66" value="否" style="edgeLabel;html=1;align=center;verticalAlign=middle;resizable=0;points=[];" vertex="1" connectable="0" parent="N5REiEFwKjcpJwuuKDTN-64">
          <mxGeometry x="-0.4786" relative="1" as="geometry">
            <mxPoint as="offset" />
          </mxGeometry>
        </mxCell>
        <mxCell id="N5REiEFwKjcpJwuuKDTN-9" value="&lt;p style=&quot;text-indent:48.0000pt;mso-char-indent-count:4.0000;line-height:150%;&quot; class=&quot;MsoNormal&quot;&gt;1&lt;span style=&quot;mso-spacerun:&#39;yes&#39;;font-family:宋体;mso-ascii-font-family:&#39;Times New Roman&#39;;&lt;br/&gt;mso-hansi-font-family:&#39;Times New Roman&#39;;mso-bidi-font-family:&#39;Times New Roman&#39;;font-size:12.0000pt;&quot;&gt;）&lt;/span&gt;&lt;span style=&quot;mso-spacerun:&#39;yes&#39;;font-family:宋体;mso-ascii-font-family:&#39;Times New Roman&#39;;&lt;br/&gt;mso-hansi-font-family:&#39;Times New Roman&#39;;mso-bidi-font-family:&#39;Times New Roman&#39;;font-size:12.0000pt;&quot;&gt;身份认证功能关闭&lt;/span&gt;&lt;span style=&quot;mso-spacerun:&#39;yes&#39;;font-family:宋体;mso-ascii-font-family:&#39;Times New Roman&#39;;&lt;br/&gt;mso-hansi-font-family:&#39;Times New Roman&#39;;mso-bidi-font-family:&#39;Times New Roman&#39;;font-size:12.0000pt;&quot;&gt;或身份认证通过。&lt;/span&gt;&lt;/p&gt;&lt;p style=&quot;text-indent:48.0000pt;mso-char-indent-count:4.0000;line-height:150%;&quot; class=&quot;MsoNormal&quot;&gt;&lt;font style=&quot;text-indent: 48pt; background-color: initial; font-size: 12pt;&quot; face=&quot;Times New Roman&quot;&gt;2&lt;/font&gt;&lt;font style=&quot;text-indent: 48pt; background-color: initial; font-family: 宋体; font-size: 12pt;&quot; face=&quot;宋体&quot;&gt;）先导安全开关断开。&lt;/font&gt;&lt;span style=&quot;background-color: initial; font-family: &amp;quot;Times New Roman&amp;quot;;&quot;&gt;3&lt;/span&gt;&lt;span style=&quot;background-color: initial; font-family: 宋体; font-size: 12pt;&quot;&gt;）&lt;/span&gt;&lt;span style=&quot;background-color: initial; font-family: 宋体; color: rgb(255, 0, 0);&quot;&gt;当前未执行二级锁车&lt;/span&gt;&lt;/p&gt;" style="rhombus;whiteSpace=wrap;html=1;rounded=1;glass=0;strokeWidth=1;shadow=0;align=center;" vertex="1" parent="WIyWlLk6GJQsqaUBKTNV-1">
          <mxGeometry x="10" y="-440" width="480" height="160" as="geometry" />
        </mxCell>
        <mxCell id="N5REiEFwKjcpJwuuKDTN-17" style="edgeStyle=orthogonalEdgeStyle;rounded=0;orthogonalLoop=1;jettySize=auto;html=1;exitX=0.5;exitY=1;exitDx=0;exitDy=0;entryX=0.5;entryY=0;entryDx=0;entryDy=0;" edge="1" parent="WIyWlLk6GJQsqaUBKTNV-1" source="N5REiEFwKjcpJwuuKDTN-14" target="N5REiEFwKjcpJwuuKDTN-9">
          <mxGeometry relative="1" as="geometry" />
        </mxCell>
        <mxCell id="N5REiEFwKjcpJwuuKDTN-34" value="启动" style="edgeLabel;html=1;align=center;verticalAlign=middle;resizable=0;points=[];" vertex="1" connectable="0" parent="N5REiEFwKjcpJwuuKDTN-17">
          <mxGeometry x="-0.1826" y="-1" relative="1" as="geometry">
            <mxPoint as="offset" />
          </mxGeometry>
        </mxCell>
        <mxCell id="N5REiEFwKjcpJwuuKDTN-24" value="" style="edgeStyle=orthogonalEdgeStyle;rounded=0;orthogonalLoop=1;jettySize=auto;html=1;" edge="1" parent="WIyWlLk6GJQsqaUBKTNV-1" source="N5REiEFwKjcpJwuuKDTN-14" target="N5REiEFwKjcpJwuuKDTN-23">
          <mxGeometry relative="1" as="geometry" />
        </mxCell>
        <mxCell id="N5REiEFwKjcpJwuuKDTN-25" value="关闭" style="edgeLabel;html=1;align=center;verticalAlign=middle;resizable=0;points=[];" vertex="1" connectable="0" parent="N5REiEFwKjcpJwuuKDTN-24">
          <mxGeometry x="0.0184" relative="1" as="geometry">
            <mxPoint as="offset" />
          </mxGeometry>
        </mxCell>
        <mxCell id="N5REiEFwKjcpJwuuKDTN-14" value="D19高电平，启动还是关闭" style="rhombus;whiteSpace=wrap;html=1;" vertex="1" parent="WIyWlLk6GJQsqaUBKTNV-1">
          <mxGeometry x="85" y="-570" width="330" height="80" as="geometry" />
        </mxCell>
        <mxCell id="N5REiEFwKjcpJwuuKDTN-20" value="" style="endArrow=classic;html=1;rounded=0;" edge="1" parent="WIyWlLk6GJQsqaUBKTNV-1" source="WIyWlLk6GJQsqaUBKTNV-3">
          <mxGeometry width="50" height="50" relative="1" as="geometry">
            <mxPoint x="250" y="-600" as="sourcePoint" />
            <mxPoint x="250" y="-579.2893218813452" as="targetPoint" />
          </mxGeometry>
        </mxCell>
        <mxCell id="N5REiEFwKjcpJwuuKDTN-27" value="" style="edgeStyle=orthogonalEdgeStyle;rounded=0;orthogonalLoop=1;jettySize=auto;html=1;" edge="1" parent="WIyWlLk6GJQsqaUBKTNV-1" source="N5REiEFwKjcpJwuuKDTN-23" target="N5REiEFwKjcpJwuuKDTN-26">
          <mxGeometry relative="1" as="geometry" />
        </mxCell>
        <mxCell id="N5REiEFwKjcpJwuuKDTN-23" value="&lt;p class=&quot;MsoNormal&quot;&gt;显示器持续发送锁车信号（&lt;span style=&quot;mso-spacerun:&#39;yes&#39;;font-family:&#39;Times New Roman&#39;;mso-fareast-font-family:宋体;&lt;br/&gt;font-size:12.0000pt;&quot;&gt;ID&lt;/span&gt;&lt;span style=&quot;mso-spacerun:&#39;yes&#39;;font-family:宋体;mso-ascii-font-family:&#39;Times New Roman&#39;;&lt;br/&gt;mso-hansi-font-family:&#39;Times New Roman&#39;;mso-bidi-font-family:&#39;Times New Roman&#39;;font-size:12.0000pt;&quot;&gt;：&lt;/span&gt;&lt;span style=&quot;mso-spacerun:&#39;yes&#39;;font-family:&#39;Times New Roman&#39;;mso-fareast-font-family:宋体;&lt;br/&gt;font-size:12.0000pt;&quot;&gt;0x18FF02E4&lt;/span&gt;&lt;span style=&quot;mso-spacerun:&#39;yes&#39;;font-family:宋体;mso-ascii-font-family:&#39;Times New Roman&#39;;&lt;br/&gt;mso-hansi-font-family:&#39;Times New Roman&#39;;mso-bidi-font-family:&#39;Times New Roman&#39;;font-size:12.0000pt;&quot;&gt;，&lt;/span&gt;&lt;span style=&quot;mso-spacerun:&#39;yes&#39;;font-family:&#39;Times New Roman&#39;;mso-fareast-font-family:宋体;&lt;br/&gt;font-size:12.0000pt;&quot;&gt;Byte1&lt;/span&gt;&lt;span style=&quot;mso-spacerun:&#39;yes&#39;;font-family:宋体;mso-ascii-font-family:&#39;Times New Roman&#39;;&lt;br/&gt;mso-hansi-font-family:&#39;Times New Roman&#39;;mso-bidi-font-family:&#39;Times New Roman&#39;;font-size:12.0000pt;&quot;&gt;为&lt;/span&gt;&lt;span style=&quot;mso-spacerun:&#39;yes&#39;;font-family:&#39;Times New Roman&#39;;mso-fareast-font-family:宋体;&lt;br/&gt;font-size:12.0000pt;&quot;&gt;04&lt;/span&gt;&lt;span style=&quot;mso-spacerun:&#39;yes&#39;;font-family:宋体;mso-ascii-font-family:&#39;Times New Roman&#39;;&lt;br/&gt;mso-hansi-font-family:&#39;Times New Roman&#39;;mso-bidi-font-family:&#39;Times New Roman&#39;;font-size:12.0000pt;&quot;&gt;）&lt;/span&gt;&lt;/p&gt;" style="whiteSpace=wrap;html=1;" vertex="1" parent="WIyWlLk6GJQsqaUBKTNV-1">
          <mxGeometry x="800" y="-575" width="250" height="90" as="geometry" />
        </mxCell>
        <mxCell id="N5REiEFwKjcpJwuuKDTN-32" value="" style="edgeStyle=orthogonalEdgeStyle;rounded=0;orthogonalLoop=1;jettySize=auto;html=1;" edge="1" parent="WIyWlLk6GJQsqaUBKTNV-1" source="N5REiEFwKjcpJwuuKDTN-26" target="N5REiEFwKjcpJwuuKDTN-31">
          <mxGeometry relative="1" as="geometry" />
        </mxCell>
        <mxCell id="N5REiEFwKjcpJwuuKDTN-33" value="是" style="edgeLabel;html=1;align=center;verticalAlign=middle;resizable=0;points=[];" vertex="1" connectable="0" parent="N5REiEFwKjcpJwuuKDTN-32">
          <mxGeometry x="-0.3074" relative="1" as="geometry">
            <mxPoint as="offset" />
          </mxGeometry>
        </mxCell>
        <mxCell id="N5REiEFwKjcpJwuuKDTN-57" style="edgeStyle=orthogonalEdgeStyle;rounded=0;orthogonalLoop=1;jettySize=auto;html=1;exitX=1;exitY=0.5;exitDx=0;exitDy=0;" edge="1" parent="WIyWlLk6GJQsqaUBKTNV-1">
          <mxGeometry relative="1" as="geometry">
            <mxPoint x="1050" y="-534.9955172413793" as="targetPoint" />
            <mxPoint x="1030" y="-330.02999999999975" as="sourcePoint" />
            <Array as="points">
              <mxPoint x="1170" y="-330.03" />
              <mxPoint x="1170" y="-535.03" />
            </Array>
          </mxGeometry>
        </mxCell>
        <mxCell id="N5REiEFwKjcpJwuuKDTN-58" value="否" style="edgeLabel;html=1;align=center;verticalAlign=middle;resizable=0;points=[];" vertex="1" connectable="0" parent="N5REiEFwKjcpJwuuKDTN-57">
          <mxGeometry x="-0.3718" y="3" relative="1" as="geometry">
            <mxPoint x="3" y="-104" as="offset" />
          </mxGeometry>
        </mxCell>
        <mxCell id="N5REiEFwKjcpJwuuKDTN-26" value="&lt;p class=&quot;MsoNormal&quot;&gt;转速＜&lt;span style=&quot;mso-spacerun:&#39;yes&#39;;font-family:&#39;Times New Roman&#39;;mso-fareast-font-family:宋体;&lt;br/&gt;color:rgb(255,0,0);font-size:12.0000pt;&quot;&gt;600rpm&lt;/span&gt;&lt;/p&gt;" style="rhombus;whiteSpace=wrap;html=1;" vertex="1" parent="WIyWlLk6GJQsqaUBKTNV-1">
          <mxGeometry x="820" y="-370" width="210" height="80" as="geometry" />
        </mxCell>
        <mxCell id="N5REiEFwKjcpJwuuKDTN-31" value="启动红灯端口33&lt;span style=&quot;border-color: var(--border-color); background-color: initial; font-family: 宋体; font-size: 12pt;&quot;&gt;输出低电平，点亮启动开关红灯&lt;/span&gt;" style="whiteSpace=wrap;html=1;" vertex="1" parent="WIyWlLk6GJQsqaUBKTNV-1">
          <mxGeometry x="865" y="-240" width="120" height="60" as="geometry" />
        </mxCell>
        <mxCell id="N5REiEFwKjcpJwuuKDTN-47" value="" style="edgeStyle=orthogonalEdgeStyle;rounded=0;orthogonalLoop=1;jettySize=auto;html=1;" edge="1" parent="WIyWlLk6GJQsqaUBKTNV-1" source="N5REiEFwKjcpJwuuKDTN-40" target="N5REiEFwKjcpJwuuKDTN-46">
          <mxGeometry relative="1" as="geometry" />
        </mxCell>
        <mxCell id="N5REiEFwKjcpJwuuKDTN-48" value="是" style="edgeLabel;html=1;align=center;verticalAlign=middle;resizable=0;points=[];" vertex="1" connectable="0" parent="N5REiEFwKjcpJwuuKDTN-47">
          <mxGeometry x="-0.0414" y="-2" relative="1" as="geometry">
            <mxPoint as="offset" />
          </mxGeometry>
        </mxCell>
        <mxCell id="N5REiEFwKjcpJwuuKDTN-49" style="edgeStyle=orthogonalEdgeStyle;rounded=0;orthogonalLoop=1;jettySize=auto;html=1;" edge="1" parent="WIyWlLk6GJQsqaUBKTNV-1" source="N5REiEFwKjcpJwuuKDTN-40" target="WIyWlLk6GJQsqaUBKTNV-3">
          <mxGeometry relative="1" as="geometry">
            <mxPoint x="-100" y="-650" as="targetPoint" />
            <mxPoint x="45.06436781609136" y="-164.9655172413793" as="sourcePoint" />
            <Array as="points">
              <mxPoint x="-99" y="-165" />
              <mxPoint x="-99" y="-630" />
            </Array>
          </mxGeometry>
        </mxCell>
        <mxCell id="N5REiEFwKjcpJwuuKDTN-50" value="否" style="edgeLabel;html=1;align=center;verticalAlign=middle;resizable=0;points=[];" vertex="1" connectable="0" parent="N5REiEFwKjcpJwuuKDTN-49">
          <mxGeometry x="0.383" y="5" relative="1" as="geometry">
            <mxPoint y="186" as="offset" />
          </mxGeometry>
        </mxCell>
        <mxCell id="N5REiEFwKjcpJwuuKDTN-40" value="&lt;p class=&quot;MsoNormal&quot;&gt;端口&lt;span style=&quot;mso-spacerun:&#39;yes&#39;;font-family:&#39;Times New Roman&#39;;mso-fareast-font-family:宋体;&lt;br/&gt;font-size:12.0000pt;&quot;&gt;4&lt;/span&gt;&lt;span style=&quot;mso-spacerun:&#39;yes&#39;;font-family:宋体;mso-ascii-font-family:&#39;Times New Roman&#39;;&lt;br/&gt;mso-hansi-font-family:&#39;Times New Roman&#39;;mso-bidi-font-family:&#39;Times New Roman&#39;;font-size:12.0000pt;&quot;&gt;默认输出低电平，&lt;/span&gt;发动机转速＜&lt;span style=&quot;background-color: initial; font-family: &amp;quot;Times New Roman&amp;quot;; color: rgb(255, 0, 0); font-size: 12pt;&quot;&gt;600&lt;/span&gt;&lt;span style=&quot;background-color: initial; font-family: 宋体; color: rgb(255, 0, 0); font-size: 12pt;&quot;&gt;&lt;font face=&quot;Times New Roman&quot;&gt;rpm&lt;/font&gt;&lt;/span&gt;&lt;/p&gt;" style="rhombus;whiteSpace=wrap;html=1;rounded=1;glass=0;strokeWidth=1;shadow=0;" vertex="1" parent="WIyWlLk6GJQsqaUBKTNV-1">
          <mxGeometry x="110" y="-240" width="280" height="150" as="geometry" />
        </mxCell>
        <mxCell id="N5REiEFwKjcpJwuuKDTN-52" value="" style="edgeStyle=orthogonalEdgeStyle;rounded=0;orthogonalLoop=1;jettySize=auto;html=1;" edge="1" parent="WIyWlLk6GJQsqaUBKTNV-1" source="N5REiEFwKjcpJwuuKDTN-46" target="N5REiEFwKjcpJwuuKDTN-51">
          <mxGeometry relative="1" as="geometry" />
        </mxCell>
        <mxCell id="N5REiEFwKjcpJwuuKDTN-56" value="检测" style="edgeLabel;html=1;align=center;verticalAlign=middle;resizable=0;points=[];" vertex="1" connectable="0" parent="N5REiEFwKjcpJwuuKDTN-52">
          <mxGeometry x="-0.1113" y="1" relative="1" as="geometry">
            <mxPoint as="offset" />
          </mxGeometry>
        </mxCell>
        <mxCell id="N5REiEFwKjcpJwuuKDTN-46" value="端口4输出高电平，启动发动机" style="whiteSpace=wrap;html=1;rounded=1;glass=0;strokeWidth=1;shadow=0;" vertex="1" parent="WIyWlLk6GJQsqaUBKTNV-1">
          <mxGeometry x="190" y="-50" width="120" height="60" as="geometry" />
        </mxCell>
        <mxCell id="N5REiEFwKjcpJwuuKDTN-54" value="" style="edgeStyle=orthogonalEdgeStyle;rounded=0;orthogonalLoop=1;jettySize=auto;html=1;" edge="1" parent="WIyWlLk6GJQsqaUBKTNV-1" source="N5REiEFwKjcpJwuuKDTN-51" target="N5REiEFwKjcpJwuuKDTN-53">
          <mxGeometry relative="1" as="geometry" />
        </mxCell>
        <mxCell id="N5REiEFwKjcpJwuuKDTN-55" value="是" style="edgeLabel;html=1;align=center;verticalAlign=middle;resizable=0;points=[];" vertex="1" connectable="0" parent="N5REiEFwKjcpJwuuKDTN-54">
          <mxGeometry x="-0.0406" y="1" relative="1" as="geometry">
            <mxPoint as="offset" />
          </mxGeometry>
        </mxCell>
        <mxCell id="N5REiEFwKjcpJwuuKDTN-60" value="" style="edgeStyle=orthogonalEdgeStyle;rounded=0;orthogonalLoop=1;jettySize=auto;html=1;" edge="1" parent="WIyWlLk6GJQsqaUBKTNV-1" source="N5REiEFwKjcpJwuuKDTN-51" target="N5REiEFwKjcpJwuuKDTN-59">
          <mxGeometry relative="1" as="geometry" />
        </mxCell>
        <mxCell id="N5REiEFwKjcpJwuuKDTN-61" value="否" style="edgeLabel;html=1;align=center;verticalAlign=middle;resizable=0;points=[];" vertex="1" connectable="0" parent="N5REiEFwKjcpJwuuKDTN-60">
          <mxGeometry x="0.2287" y="-2" relative="1" as="geometry">
            <mxPoint as="offset" />
          </mxGeometry>
        </mxCell>
        <mxCell id="N5REiEFwKjcpJwuuKDTN-51" value="&lt;p class=&quot;MsoNormal&quot;&gt;&lt;span style=&quot;mso-spacerun:&#39;yes&#39;;font-family:宋体;mso-ascii-font-family:&#39;Times New Roman&#39;;&lt;br/&gt;mso-hansi-font-family:&#39;Times New Roman&#39;;mso-bidi-font-family:&#39;Times New Roman&#39;;font-size:12.0000pt;&quot;&gt;&lt;font face=&quot;宋体&quot;&gt;发动机转速&lt;/font&gt;&lt;/span&gt;&lt;span style=&quot;mso-spacerun:&#39;yes&#39;;font-family:宋体;mso-ascii-font-family:Arial;&lt;br/&gt;mso-hansi-font-family:Arial;mso-bidi-font-family:Arial;color:rgb(0,0,0);&lt;br/&gt;font-size:12.0000pt;&quot;&gt;&lt;font face=&quot;宋体&quot;&gt;≥&lt;/font&gt;&lt;/span&gt;&lt;span style=&quot;mso-spacerun:&#39;yes&#39;;font-family:Arial;mso-fareast-font-family:宋体;&lt;br/&gt;color:rgb(0,0,0);font-size:12.0000pt;&quot;&gt;6&lt;/span&gt;&lt;span style=&quot;mso-spacerun:&#39;yes&#39;;font-family:宋体;mso-ascii-font-family:Arial;&lt;br/&gt;mso-hansi-font-family:Arial;mso-bidi-font-family:Arial;color:rgb(0,0,0);&lt;br/&gt;font-size:12.0000pt;&quot;&gt;&lt;font face=&quot;Arial&quot;&gt;00rpm且D19端口高电平，持续3秒&lt;/font&gt;&lt;/span&gt;&lt;/p&gt;" style="rhombus;whiteSpace=wrap;html=1;rounded=1;glass=0;strokeWidth=1;shadow=0;" vertex="1" parent="WIyWlLk6GJQsqaUBKTNV-1">
          <mxGeometry x="61.25" y="50" width="377.5" height="160" as="geometry" />
        </mxCell>
        <mxCell id="N5REiEFwKjcpJwuuKDTN-53" value="&lt;p class=&quot;MsoNormal&quot;&gt;&lt;span style=&quot;mso-spacerun:&#39;yes&#39;;font-family:宋体;mso-ascii-font-family:&#39;Times New Roman&#39;;&lt;br/&gt;mso-hansi-font-family:&#39;Times New Roman&#39;;mso-bidi-font-family:&#39;Times New Roman&#39;;font-size:12.0000pt;&quot;&gt;&lt;font face=&quot;宋体&quot;&gt;端口&lt;/font&gt;&lt;/span&gt;&lt;span style=&quot;mso-spacerun:&#39;yes&#39;;font-family:&#39;Times New Roman&#39;;mso-fareast-font-family:宋体;&lt;br/&gt;font-size:12.0000pt;&quot;&gt;4&lt;/span&gt;&lt;span style=&quot;mso-spacerun:&#39;yes&#39;;font-family:宋体;mso-ascii-font-family:&#39;Times New Roman&#39;;&lt;br/&gt;mso-hansi-font-family:&#39;Times New Roman&#39;;mso-bidi-font-family:&#39;Times New Roman&#39;;font-size:12.0000pt;&quot;&gt;&lt;font face=&quot;宋体&quot;&gt;输出低电平，进行保护，端口34输出低电平&lt;/font&gt;&lt;/span&gt;&lt;/p&gt;" style="whiteSpace=wrap;html=1;rounded=1;glass=0;strokeWidth=1;shadow=0;" vertex="1" parent="WIyWlLk6GJQsqaUBKTNV-1">
          <mxGeometry x="115" y="260" width="270" height="90" as="geometry" />
        </mxCell>
        <mxCell id="N5REiEFwKjcpJwuuKDTN-59" value="30秒，端口4输出低电平" style="whiteSpace=wrap;html=1;rounded=1;glass=0;strokeWidth=1;shadow=0;" vertex="1" parent="WIyWlLk6GJQsqaUBKTNV-1">
          <mxGeometry x="-120" y="100" width="120" height="60" as="geometry" />
        </mxCell>
        <mxCell id="N5REiEFwKjcpJwuuKDTN-63" value="D33输出低电平&lt;br&gt;1&lt;span style=&quot;text-indent: 48pt; background-color: initial; font-family: 宋体; font-size: 12pt;&quot;&gt;）身份认证未通过，显示器停留在输入密码界面。&lt;/span&gt;&lt;p style=&quot;text-indent:48.0000pt;mso-char-indent-count:4.0000;line-height:150%;&quot; class=&quot;MsoNormal&quot;&gt;&lt;span style=&quot;mso-spacerun:&#39;yes&#39;;font-family:&#39;Times New Roman&#39;;mso-fareast-font-family:宋体;&lt;br/&gt;font-size:12.0000pt;&quot;&gt;2&lt;/span&gt;&lt;span style=&quot;mso-spacerun:&#39;yes&#39;;font-family:宋体;mso-ascii-font-family:&#39;Times New Roman&#39;;&lt;br/&gt;mso-hansi-font-family:&#39;Times New Roman&#39;;mso-bidi-font-family:&#39;Times New Roman&#39;;font-size:12.0000pt;&quot;&gt;&lt;font face=&quot;宋体&quot;&gt;）先导安全开关闭合，显示器显示&lt;/font&gt;&lt;font face=&quot;宋体&quot;&gt;“请将液压锁复位！”。&lt;/font&gt;&lt;/span&gt;&lt;span style=&quot;mso-spacerun:&#39;yes&#39;;font-family:&#39;Times New Roman&#39;;mso-fareast-font-family:宋体;&lt;br/&gt;font-size:12.0000pt;&quot;&gt;&lt;/span&gt;&lt;/p&gt;&lt;p style=&quot;text-indent:48.0000pt;mso-char-indent-count:4.0000;line-height:150%;&quot; class=&quot;MsoNormal&quot;&gt;&lt;span style=&quot;mso-spacerun:&#39;yes&#39;;font-family:&#39;Times New Roman&#39;;mso-fareast-font-family:宋体;&lt;br/&gt;font-size:12.0000pt;&quot;&gt;3&lt;/span&gt;&lt;span style=&quot;mso-spacerun:&#39;yes&#39;;font-family:宋体;mso-ascii-font-family:&#39;Times New Roman&#39;;&lt;br/&gt;mso-hansi-font-family:&#39;Times New Roman&#39;;mso-bidi-font-family:&#39;Times New Roman&#39;;font-size:12.0000pt;&quot;&gt;&lt;font face=&quot;宋体&quot;&gt;）当前已执行二级锁车，显示器显示&lt;/font&gt;&lt;font face=&quot;宋体&quot;&gt;“二级锁车”。&lt;/font&gt;&lt;/span&gt;&lt;span style=&quot;mso-spacerun:&#39;yes&#39;;font-family:&#39;Times New Roman&#39;;mso-fareast-font-family:宋体;&lt;br/&gt;font-size:12.0000pt;&quot;&gt;&lt;/span&gt;&lt;/p&gt;" style="whiteSpace=wrap;html=1;rounded=1;glass=0;strokeWidth=1;shadow=0;" vertex="1" parent="WIyWlLk6GJQsqaUBKTNV-1">
          <mxGeometry x="520" y="-250" width="260" height="230" as="geometry" />
        </mxCell>
      </root>
    </mxGraphModel>
  </diagram>
</mxfile>
